<?xml version="1.0" standalone="no"?>
<!DOCTYPE svg PUBLIC "-//W3C//DTD SVG 1.0//EN" "http://www.w3.org/TR/2001/REC-SVG-20010904/DTD/svg10.dtd">
<svg xmlns="http://www.w3.org/2000/svg" xmlns:xlink="http://www.w3.org/1999/xlink" id="body_1203149624_9050" width="3175.6801" height="4488.9599">

<g transform="matrix(327.96031 0 0 -327.96031 1587.84 2244.4799)" >
    <g>
            <path d="M1.3425466 -4.8163854L1.5647999 -4.6422695" stroke="#000000" stroke-width="0.00355704" stroke-linecap="round" fill="none" />
            <path d="M1.7660075 -4.4800575L1.5647999 -4.6422695" stroke="#000000" stroke-width="0.00355704" stroke-linecap="round" fill="none" />
            <path d="M0.71825678 -3.142638L1.7660075 -4.4800575" stroke="#000000" stroke-width="0.00355704" stroke-linecap="round" fill="none" />
            <path d="M0.71825678 -3.142638L1.4691547 -2.5543754" stroke="#000000" stroke-width="0.00355704" stroke-linecap="round" fill="none" />
            <path d="M0.98481578 -0.75709912L1.4691547 -2.5543754" stroke="#000000" stroke-width="0.00355704" stroke-linecap="round" fill="none" />
            <path d="M1.0357765 -0.7180096L0.98481578 -0.75709912" stroke="#000000" stroke-width="0.00355704" stroke-linecap="round" fill="none" />
            <path d="M-0.37204932 -1.0266412L1.0357765 -0.7180096" stroke="#000000" stroke-width="0.00355704" stroke-linecap="round" fill="none" />
            <path d="M-0.70990861 0.51450655L-0.76366783 0.50247851L-0.81645705 0.48672965L-0.86801909 0.46733681L-0.91810279 0.44439438L-0.96646406 0.4180142L-1.0128673 0.38832477L-1.0570865 0.35547069L-1.0989063 0.31961212L-1.1381227 0.28092364L-1.1745449 0.23959384L-1.2079954 0.19582406L-1.2383111 0.14982748L-1.2653444 0.10182822L-1.2889637 0.052060164L-1.3090537 0.00076574853L-1.3255167 -0.05180516L-1.3382725 -0.10539639L-1.3472588 -0.15974687L-1.3524318 -0.2145918L-1.3537666 -0.269664L-1.3512564 -0.32469515L-1.3449136 -0.37941715L-1.334769 -0.4335634L-1.3208721 -0.4868701L-1.3032906 -0.53907754L-1.28211 -0.58993139L-1.2574337 -0.63918387L-1.2293817 -0.68659504L-1.198091 -0.73193391L-1.1637137 -0.77497961L-1.1264175 -0.81552245L-1.0863839 -0.85336484L-1.0438082 -0.88832243L-0.99889769 -0.92022498L-0.95187115 -0.94891699L-0.9029577 -0.97425868L-0.85239564 -0.99612661L-0.80043132 -1.0144142L-0.74731809 -1.0290324L-0.69331435 -1.0399101L-0.63868336 -1.0469941L-0.5836913 -1.0502501L-0.52860607 -1.049662L-0.47369604 -1.0452329L-0.37204956 -1.0266412" stroke="#000000" stroke-width="0.00355704" stroke-linecap="round" fill="none" />
            <path d="M1.1419311 0.9204775L-0.70990858 0.51450659" stroke="#000000" stroke-width="0.00355704" stroke-linecap="round" fill="none" />
            <path d="M1.1419311 0.92047771L1.170731 1.0286225L1.2070046 1.134495L1.250575 1.2375792L1.3012301 1.3373731L1.3587231 1.4333902L1.4227739 1.525163L1.4930703 1.6122443L1.5692701 1.6942098L1.6510017 1.7706603L1.7378674 1.8412232L1.8294435 1.9055547L1.9252841 1.9633416L2.0249223 2.0143021L2.1278726 2.0581882L2.2336335 2.0947858L2.3416896 2.1239168L2.4515146 2.1454392L2.5625734 2.1592482L2.6743249 2.1652765L2.7862248 2.1634947L2.8977277 2.1539116L3.0082906 2.1365737L3.1173746 2.1115656L3.2244485 2.079009L3.3289906 2.0390627L3.4304914 1.9919212L3.5284566 1.9378142L3.6224088 1.8770052L3.7118904 1.8097907L3.7964653 1.736498L3.8757215 1.657484L3.949273 1.573134L4.0167614 1.4838588L4.0778578 1.3900933L4.1322647 1.2922943L4.1797169 1.1909383L4.2199832 1.0865192L4.2528675 0.97954556L4.2782097 0.87053856L4.2958862 0.76002935L4.3058109 0.64855628L4.3079354 0.53666244L4.3022495 0.42489297L4.2887807 0.31379239L4.2675949 0.20390197L4.238795 0.095757124L4.2025214 -0.010115357L4.158951 -0.11319956L4.1082959 -0.21299341L4.0508029 -0.30901059L3.9867521 -0.40078339L3.9164557 -0.4878647L3.8402559 -0.56983015L3.7585242 -0.64628061L3.6716586 -0.71684357L3.5800825 -0.7811751L3.4842418 -0.83896193L3.3846037 -0.88992247L3.2816533 -0.93380853L3.1758925 -0.97040614L3.0678364 -0.9995372L2.8778797 -1.0318127" stroke="#000000" stroke-width="0.00355704" stroke-linecap="round" fill="none" />
            <path d="M4.1312417 -2.6316876L2.8778801 -1.0318126" stroke="#000000" stroke-width="0.00355704" stroke-linecap="round" fill="none" />
            <path d="M4.1312417 -2.6316876L4.3550226 -2.4563749" stroke="#000000" stroke-width="0.00355704" stroke-linecap="round" fill="none" />
            <path d="M4.3550226 -2.4563749L4.8163854 1.3425466" stroke="#000000" stroke-width="0.00355704" stroke-linecap="round" fill="none" />
            <path d="M4.8163854 1.3425466L2.4563749 4.3550226" stroke="#000000" stroke-width="0.00355704" stroke-linecap="round" fill="none" />
            <path d="M2.4563749 4.3550226L-1.3425466 4.8163854" stroke="#000000" stroke-width="0.00355704" stroke-linecap="round" fill="none" />
            <path d="M-1.3425466 4.8163854L-4.3550226 2.4563749" stroke="#000000" stroke-width="0.00355704" stroke-linecap="round" fill="none" />
            <path d="M-4.3550226 2.4563749L-4.8163854 -1.3425466" stroke="#000000" stroke-width="0.00355704" stroke-linecap="round" fill="none" />
            <path d="M-4.8163854 -1.3425466L-2.4563749 -4.3550226" stroke="#000000" stroke-width="0.00355704" stroke-linecap="round" fill="none" />
            <path d="M-2.4563749 -4.3550226L1.3425466 -4.8163854" stroke="#000000" stroke-width="0.00355704" stroke-linecap="round" fill="none" />
            <path d="M-1.2561907 -3.2833532L-1.2576418 -3.2417973L-1.2619882 -3.2004439L-1.2692087 -3.1594945L-1.2792682 -3.1191484L-1.2921174 -3.0796023L-1.307694 -3.0410489L-1.325922 -3.003676L-1.3467126 -2.9676656L-1.3699645 -2.9331933L-1.3955645 -2.9004268L-1.4233877 -2.869526L-1.4532987 -2.8406413L-1.4851518 -2.8139134L-1.5187917 -2.7894726L-1.5540545 -2.7674379L-1.5907685 -2.7479167L-1.6287548 -2.7310041L-1.6678284 -2.7167825L-1.7077988 -2.7053212L-1.7484713 -2.6966759L-1.7896478 -2.690889L-1.8311278 -2.6879884L-1.8727089 -2.6879884L-1.9141888 -2.690889L-1.9553654 -2.6966759L-1.9960379 -2.7053212L-2.0360083 -2.7167825L-2.0750819 -2.7310041L-2.1130682 -2.7479167L-2.1497822 -2.7674379L-2.185045 -2.7894726L-2.2186849 -2.8139134L-2.250538 -2.8406413L-2.280449 -2.869526L-2.3082722 -2.9004268L-2.3338722 -2.9331933L-2.3571241 -2.9676656L-2.3779147 -3.003676L-2.3961427 -3.0410489L-2.4117193 -3.0796023L-2.4245685 -3.1191484L-2.434628 -3.1594945L-2.4418485 -3.2004439L-2.4461949 -3.2417973L-2.447646 -3.2833532L-2.4461949 -3.3249091L-2.4418485 -3.3662625L-2.434628 -3.407212L-2.4245685 -3.447558L-2.4117193 -3.4871041L-2.3961427 -3.5256575L-2.3779147 -3.5630304L-2.3571241 -3.5990408L-2.3338722 -3.6335131L-2.3082722 -3.6662796L-2.280449 -3.6971804L-2.250538 -3.7260652L-2.2186849 -3.752793L-2.185045 -3.7772338L-2.1497822 -3.7992685L-2.1130682 -3.8187897L-2.0750819 -3.8357023L-2.0360083 -3.8499239L-1.9960379 -3.8613852L-1.9553654 -3.8700305L-1.9141888 -3.8758174L-1.8727089 -3.878718L-1.8311278 -3.878718L-1.7896478 -3.8758174L-1.7484713 -3.8700305L-1.7077988 -3.8613852L-1.6678284 -3.8499239L-1.6287548 -3.8357023L-1.5907685 -3.8187897L-1.5540545 -3.7992685L-1.5187917 -3.7772338L-1.4851518 -3.752793L-1.4532987 -3.7260652L-1.4233877 -3.6971804L-1.3955645 -3.6662796L-1.3699645 -3.6335131L-1.3467126 -3.5990408L-1.325922 -3.5630304L-1.307694 -3.5256575L-1.2921174 -3.4871041L-1.2792682 -3.447558L-1.2692087 -3.407212L-1.2619882 -3.3662625L-1.2561907 -3.2833532" stroke="#000000" stroke-width="0.00355704" stroke-linecap="round" fill="none" />
            <path d="M2.4642341 3.3320399L2.4628094 3.3728373L2.4585423 3.4134359L2.4514536 3.453638L2.4415778 3.4932477L2.428963 3.532072L2.4136707 3.5699218L2.3957754 3.6066126L2.3753642 3.6419657L2.3525367 3.6758089L2.327404 3.7079773L2.3000886 3.7383142L2.2707235 3.7666717L2.2394518 3.7929118L2.2064259 3.8169065L2.1718066 3.838539L2.1357627 3.8577039L2.0984697 3.8743078L2.0601093 3.8882699L2.0208684 3.899522L1.9809382 3.9080094L1.9405132 3.9136908L1.8997904 3.9165384L1.8589681 3.9165384L1.8182452 3.9136908L1.7778202 3.9080094L1.73789 3.899522L1.6986491 3.8882699L1.6602887 3.8743078L1.6229957 3.8577039L1.5869518 3.838539L1.5523325 3.8169065L1.5193066 3.7929118L1.4880349 3.7666717L1.4586698 3.7383142L1.4313544 3.7079773L1.4062217 3.6758089L1.3833942 3.6419657L1.362983 3.6066126L1.3450877 3.5699218L1.3297954 3.532072L1.3171806 3.4932477L1.3073049 3.453638L1.3002161 3.4134359L1.295949 3.3728373L1.2945244 3.3320399L1.295949 3.2912424L1.3002161 3.2506438L1.3073049 3.2104417L1.3171806 3.170832L1.3297954 3.1320077L1.3450877 3.094158L1.362983 3.0574671L1.3833942 3.022114L1.4062217 2.9882708L1.4313544 2.9561024L1.4586698 2.9257655L1.4880349 2.897408L1.5193066 2.871168L1.5523325 2.8471732L1.5869518 2.8255407L1.6229957 2.8063758L1.6602887 2.7897719L1.6986491 2.7758099L1.73789 2.7645577L1.7778202 2.7560703L1.8182452 2.7503889L1.8589681 2.7475413L1.8997904 2.7475413L1.9405132 2.7503889L1.9809382 2.7560703L2.0208684 2.7645577L2.0601093 2.7758099L2.0984697 2.7897719L2.1357627 2.8063758L2.1718066 2.8255407L2.2064259 2.8471732L2.2394518 2.871168L2.2707235 2.897408L2.3000886 2.9257655L2.327404 2.9561024L2.3525367 2.9882708L2.3753642 3.022114L2.3957754 3.0574671L2.4136707 3.094158L2.428963 3.1320077L2.4415778 3.170832L2.4514536 3.2104417L2.4585423 3.2506438L2.4642341 3.3320399" stroke="#000000" stroke-width="0.00355704" stroke-linecap="round" fill="none" />
    </g>
</g>
</svg>