<?xml version="1.0" standalone="no"?>
<!DOCTYPE svg PUBLIC "-//W3C//DTD SVG 1.1//EN"
  "http://www.w3.org/Graphics/SVG/1.1/DTD/svg11.dtd">
<svg width="42mm" height="42mm" viewBox="-20 -19 42 42" xmlns="http://www.w3.org/2000/svg" version="1.1">
	<title>svgOutput</title>
	<desc>made with tinkercad</desc>
<path d="M 15.234200477600098 -8.376103401184082 L 13.91100025177002 -11.493000030517578 L 13.460095405578613 -11.301620483398438 L 9.268745422363281 -9.52266788482666 L 6.955999851226807 -10.602999687194824 L 6.9029998779296875 -10.530740737915039 L 6.801050186157227 -10.391745567321777 L 6.752378940582275 -10.698115348815918 L 6.60099983215332 -11.651000022888184 L 5.7270002365112305 -13.366000175476074 L 4.366000175476074 -14.72700023651123 L 2.6510000228881836 -15.60099983215332 L 0.75 -15.902000427246094 L 0 -15.783246994018555 L -1.1510000228881836 -15.60099983215332 L -2.390885591506958 -14.969128608703613 L -2.865999937057495 -14.72700023651123 L -4.2270002365112305 -13.366000175476074 L -4.259140491485596 -13.302932739257812 L -5.10099983215332 -11.651000022888184 L -5.4019999504089355 -9.75 L -5.10099983215332 -7.848999977111816 L -4.2270002365112305 -6.133999824523926 L -3.8410000801086426 -5.748000144958496 L -2.865999937057495 -4.7729997634887695 L -2.436972141265869 -4.55435848236084 L -1.8904991149902344 -4.275864124298096 L -1.3969999551773071 -4.024366855621338 L -1.1510000228881836 -3.8989999294281006 L -0.6029999852180481 -3.8122308254241943 L -0.6029999852180481 -3.619727611541748 L -0.6029999852180481 -3.5980000495910645 L -0.6029999852180481 -2.802000045776367 L -1.3969999551773071 -2.802000045776367 L -1.4049999713897705 -2.802000045776367 L -1.3969999551773071 -2.8499999046325684 L -1.409999966621399 -2.927999973297119 L -1.4459999799728394 -2.997999906539917 L -1.5019999742507935 -3.053999900817871 L -1.5360000133514404 -3.071485757827759 L -1.5720000267028809 -3.0899999141693115 L -1.649999976158142 -3.1029999256134033 L -1.7280000448226929 -3.0899999141693115 L -1.7979999780654907 -3.053999900817871 L -1.8539999723434448 -2.997999906539917 L -1.8899999856948853 -2.927999973297119 L -1.902999997138977 -2.8499999046325684 L -1.8899999856948853 -2.7720000743865967 L -1.8539999723434448 -2.7019999027252197 L -1.7979999780654907 -2.6459999084472656 L -1.7280000448226929 -2.609999895095825 L -1.649999976158142 -2.5980000495910645 L -1.6030000448226929 -2.6052308082580566 L -1.6030000448226929 -2.5980000495910645 L -1.6030000448226929 -2.079632043838501 L -1.6030000448226929 4.203000068664551 L -1.5866105556488037 4.203000068664551 L -1.4800000190734863 4.873000144958496 L -1.125 5.571000099182129 L -0.5709999799728394 6.125 L 0 6.415408134460449 L 0.12700000405311584 6.480000019073486 L 0.8999999761581421 6.6020002365112305 L 1.6729999780654907 6.480000019073486 L 2.371000051498413 6.125 L 2.924999952316284 5.571000099182129 L 3.2799999713897705 4.873000144958496 L 3.386610507965088 4.203000068664551 L 3.4030001163482666 4.203000068664551 L 3.4030001163482666 -2.344275712966919 L 11.101573944091797 -2.75126314163208 L 13.07699966430664 1.9019999504089355 L 18.23579978942871 -0.2875719070434569 L 18.601999282836914 -0.44299998879432667 L 17.033052444458008 -4.138770580291748 L 18.375141143798828 -4.336760520935059 L 19.78079605102539 -0.9433217048645018 L 21 2 L 20.134096145629883 4.090407848358154 L 15.965897560119629 14.152999877929688 L 15.142000198364258 16.142000198364258 L 8.04800033569336 19.08052635192871 L 1 22 L -13.142000198364258 16.142000198364258 L -14.238240242004395 13.495527267456055 L -18.83246421813965 2.4044525623321533 L -19 2 L -17.66176414489746 -1.2306807041168213 L -16.725221633911133 -3.49162220954895 L -13.142000198364258 -12.142000198364258 L -11.053000450134277 -13.007320404052734 L -7.116794586181641 -14.637803077697754 L -5.4019999504089355 -15.34811782836914 L -4.236098289489746 -15.831066131591797 L -4.064854145050049 -15.902000427246094 L 1 -18 L 6.064854145050049 -15.902000427246094 L 6.9029998779296875 -15.554817199707031 L 12.64770793914795 -13.175203323364258 L 15.142000198364258 -12.142000198364258 L 15.186572074890137 -12.03439712524414 L 16.61741065979004 -8.580160140991211 L 15.234200477600098 -8.376103401184082 M 6.6573357582092285 -8.203615188598633 L 6.757802963256836 -8.156684875488281 L 6.9029998779296875 -8.088860511779785 L 9.313679695129395 -6.962780475616455 L 10.18337345123291 -4.914153099060059 L 6.9029998779296875 -4.740735054016113 L 4.0017266273498535 -4.587358474731445 L 4.366000175476074 -4.7729997634887695 L 5.7270002365112305 -6.133999824523926 L 6.60099983215332 -7.848999977111816 L 6.6573357582092285 -8.203615188598633 M -9.633999824523926 -5.8480000495910645 L -9 -5.748000144958496 L -8.366000175476074 -5.8480000495910645 L -8.192000389099121 -5.936521053314209 L -7.794000148773193 -6.138999938964844 L -7.339000225067139 -6.593999862670898 L -7.047999858856201 -7.165999889373779 L -6.947000026702881 -7.800000190734863 L -7.047999858856201 -8.434000015258789 L -7.339000225067139 -9.005999565124512 L -7.794000148773193 -9.461000442504883 L -8.192000389099121 -9.66347885131836 L -8.366000175476074 -9.751999855041504 L -9 -9.852999687194824 L -9.633999824523926 -9.751999855041504 L -10.206000328063965 -9.461000442504883 L -10.66100025177002 -9.005999565124512 L -10.95199966430664 -8.434000015258789 L -11.053000450134277 -7.800000190734863 L -10.95199966430664 -7.165999889373779 L -10.66100025177002 -6.593999862670898 L -10.206000328063965 -6.138999938964844 L -9.633999824523926 -5.8480000495910645 M 9.465999603271484 14.052000045776367 L 10.100000381469727 14.152999877929688 L 10.734000205993652 14.052000045776367 L 11.305999755859375 13.76099967956543 L 11.76099967956543 13.305999755859375 L 12.052000045776367 12.734000205993652 L 12.123050689697266 12.288000106811523 L 12.152999877929688 12.100000381469727 L 12.052000045776367 11.465999603271484 L 11.76099967956543 10.894000053405762 L 11.305999755859375 10.439000129699707 L 10.734000205993652 10.14799976348877 L 10.100000381469727 10.04800033569336 L 9.465999603271484 10.14799976348877 L 8.894000053405762 10.439000129699707 L 8.439000129699707 10.894000053405762 L 8.14799976348877 11.465999603271484 L 8.04800033569336 12.100000381469727 L 8.077652931213379 12.288000106811523 L 8.14799976348877 12.734000205993652 L 8.439000129699707 13.305999755859375 L 8.894000053405762 13.76099967956543 L 9.465999603271484 14.052000045776367 z" fill="none" stroke="rgb(255,0,0)" stroke-width="0.001mm" />
</svg>