<?xml version="1.0" standalone="no"?>
<!DOCTYPE svg PUBLIC "-//W3C//DTD SVG 1.1//EN"
  "http://www.w3.org/Graphics/SVG/1.1/DTD/svg11.dtd">
<svg width="37.14700126647949mm" height="37.147000312805176mm" viewBox="-17.9950008392334 -15.994999885559082 37.14700126647949 37.147000312805176" xmlns="http://www.w3.org/2000/svg" version="1.1">
	<title>svgOutput</title>
	<desc>made with tinkercad</desc>
<path d="M 14.08899974822998 -1.1720000505447388 L 14.768255233764648 1.1102230246251565e-16 L 15.756999969482422 1.7059999704360962 L 17.01099967956543 4.609000205993652 L 17.81599998474121 7.455999851226807 L 18.152000427246094 10.170000076293945 L 18.006999969482422 12.677000045776367 L 17.597476959228516 14.152999877929688 L 17.38800048828125 14.907999992370605 L 16.309999465942383 16.80299949645996 L 14.803000450134277 18.309999465942383 L 12.907999992370605 19.38800048828125 L 10.677000045776367 20.006999969482422 L 8.170000076293945 20.152000427246094 L 8.04800033569336 20.13689613342285 L 5.455999851226807 19.81599998474121 L 2.6089999675750732 19.01099967956543 L 5.9414516221430874e-15 17.88399887084961 L -0.2939999997615814 17.756999969482422 L -3.171999931335449 16.089000701904297 L -5.947999954223633 14.053000450134277 L -8.54699993133545 11.70300006866455 L -10.895999908447266 9.104999542236328 L -12.932000160217285 6.328999996185303 L -14.600000381469727 3.450000047683716 L -15.854000091552734 0.5479999780654908 L -16.008949279785156 1.1102230246251565e-16 L -16.659000396728516 -2.2990000247955322 L -16.9950008392334 -5.013000011444092 L -16.85099983215332 -7.519999980926514 L -16.231000900268555 -9.75100040435791 L -15.152999877929688 -11.645999908447266 L -13.645999908447266 -13.152999877929688 L -11.75100040435791 -14.230999946594238 L -11.053000450134277 -14.424975395202637 L -9.520000457763672 -14.85099983215332 L -7.013000011444092 -14.994999885559082 L -6.947000026702881 -14.986828804016113 L -4.298999786376953 -14.659000396728516 L -1.4520000219345093 -13.854000091552734 L 0 -13.226568222045898 L 1.4500000476837158 -12.600000381469727 L 4.328999996185303 -10.932000160217285 L 7.105000019073486 -8.895999908447266 L 9.70300006866455 -6.546999931335449 L 12.053000450134277 -3.947999954223633 L 14.08899974822998 -1.1720000505447388 M -9.633999824523926 -5.8480000495910645 L -9 -5.748000144958496 L -8.366000175476074 -5.8480000495910645 L -8.192000389099121 -5.936521053314209 L -7.794000148773193 -6.138999938964844 L -7.339000225067139 -6.593999862670898 L -7.047999858856201 -7.165999889373779 L -6.947000026702881 -7.800000190734863 L -7.047999858856201 -8.434000015258789 L -7.339000225067139 -9.005999565124512 L -7.794000148773193 -9.461000442504883 L -8.192000389099121 -9.66347885131836 L -8.366000175476074 -9.751999855041504 L -9 -9.852999687194824 L -9.633999824523926 -9.751999855041504 L -10.206000328063965 -9.461000442504883 L -10.66100025177002 -9.005999565124512 L -10.95199966430664 -8.434000015258789 L -11.053000450134277 -7.800000190734863 L -10.95199966430664 -7.165999889373779 L -10.66100025177002 -6.593999862670898 L -10.206000328063965 -6.138999938964844 L -9.633999824523926 -5.8480000495910645 M 9.465999603271484 14.052000045776367 L 10.100000381469727 14.152999877929688 L 10.734000205993652 14.052000045776367 L 11.305999755859375 13.76099967956543 L 11.76099967956543 13.305999755859375 L 12.052000045776367 12.734000205993652 L 12.123050689697266 12.288000106811523 L 12.152999877929688 12.100000381469727 L 12.052000045776367 11.465999603271484 L 11.76099967956543 10.894000053405762 L 11.305999755859375 10.439000129699707 L 10.734000205993652 10.14799976348877 L 10.100000381469727 10.04800033569336 L 9.465999603271484 10.14799976348877 L 8.894000053405762 10.439000129699707 L 8.439000129699707 10.894000053405762 L 8.14799976348877 11.465999603271484 L 8.04800033569336 12.100000381469727 L 8.077652931213379 12.288000106811523 L 8.14799976348877 12.734000205993652 L 8.439000129699707 13.305999755859375 L 8.894000053405762 13.76099967956543 L 9.465999603271484 14.052000045776367 z" fill="none" stroke="rgb(255,0,0)" stroke-width="0.001mm" />
</svg>