<?xml version="1.0" standalone="no"?>
<!DOCTYPE svg PUBLIC "-//W3C//DTD SVG 1.1//EN"
  "http://www.w3.org/Graphics/SVG/1.1/DTD/svg11.dtd">
<svg width="42mm" height="42mm" viewBox="-20 -19 42 42" xmlns="http://www.w3.org/2000/svg" version="1.1">
	<title>svgOutput</title>
	<desc>made with tinkercad</desc>
<path d="M 1 -18 L 15.142000198364258 -12.142000198364258 L 17.79056739807129 -5.748000144958496 L 21 2 L 15.965897560119629 14.152999877929688 L 15.142000198364258 16.142000198364258 L 8.04800033569336 19.08052635192871 L 1 22 L -11.053000450134277 17.007320404052734 L -13.142000198364258 16.142000198364258 L -19 2 L -13.142000198364258 -12.142000198364258 L -11.053000450134277 -13.007320404052734 L -6.947000026702881 -14.708137512207031 L 1 -18 M -9.633999824523926 -5.8480000495910645 L -9 -5.748000144958496 L -8.366000175476074 -5.8480000495910645 L -8.192000389099121 -5.936521053314209 L -7.794000148773193 -6.138999938964844 L -7.339000225067139 -6.593999862670898 L -7.047999858856201 -7.165999889373779 L -6.947000026702881 -7.800000190734863 L -7.047999858856201 -8.434000015258789 L -7.339000225067139 -9.005999565124512 L -7.794000148773193 -9.461000442504883 L -8.192000389099121 -9.66347885131836 L -8.366000175476074 -9.751999855041504 L -9 -9.852999687194824 L -9.633999824523926 -9.751999855041504 L -10.206000328063965 -9.461000442504883 L -10.66100025177002 -9.005999565124512 L -10.95199966430664 -8.434000015258789 L -11.053000450134277 -7.800000190734863 L -10.95199966430664 -7.165999889373779 L -10.66100025177002 -6.593999862670898 L -10.206000328063965 -6.138999938964844 L -9.633999824523926 -5.8480000495910645 M 9.465999603271484 14.052000045776367 L 10.100000381469727 14.152999877929688 L 10.734000205993652 14.052000045776367 L 11.305999755859375 13.76099967956543 L 11.76099967956543 13.305999755859375 L 12.052000045776367 12.734000205993652 L 12.123050689697266 12.288000106811523 L 12.152999877929688 12.100000381469727 L 12.052000045776367 11.465999603271484 L 11.76099967956543 10.894000053405762 L 11.305999755859375 10.439000129699707 L 10.734000205993652 10.14799976348877 L 10.100000381469727 10.04800033569336 L 9.465999603271484 10.14799976348877 L 8.894000053405762 10.439000129699707 L 8.439000129699707 10.894000053405762 L 8.14799976348877 11.465999603271484 L 8.04800033569336 12.100000381469727 L 8.077652931213379 12.288000106811523 L 8.14799976348877 12.734000205993652 L 8.439000129699707 13.305999755859375 L 8.894000053405762 13.76099967956543 L 9.465999603271484 14.052000045776367 z" fill="none" stroke="rgb(255,0,0)" stroke-width="0.001mm" />
</svg>